<svg width="21" height="21" viewBox="0 0 21 21" fill="none" xmlns="http://www.w3.org/2000/svg">
<g opacity="0.6">
<path d="M5.53402 11.1846H7.83596V20.6613C7.83596 20.8484 7.98757 21 8.17467 21H12.0777C12.2648 21 12.4164 20.8484 12.4164 20.6613V11.2292H15.0627C15.2347 11.2292 15.3795 11.1001 15.3991 10.9292L15.8011 7.44037C15.8121 7.34438 15.7817 7.24825 15.7175 7.17624C15.6532 7.10416 15.5612 7.06291 15.4647 7.06291H12.4165V4.87593C12.4165 4.21666 12.7715 3.88236 13.4717 3.88236C13.5715 3.88236 15.4647 3.88236 15.4647 3.88236C15.6518 3.88236 15.8034 3.73068 15.8034 3.54365V0.341216C15.8034 0.154113 15.6518 0.00250645 15.4647 0.00250645H12.7181C12.6987 0.00155806 12.6557 0 12.5923 0C12.1157 0 10.4592 0.0935515 9.1507 1.29733C7.70088 2.6313 7.90242 4.22852 7.95058 4.50545V7.06284H5.53402C5.34692 7.06284 5.19531 7.21445 5.19531 7.40155V10.8458C5.19531 11.0329 5.34692 11.1846 5.53402 11.1846Z" fill="#F0F0F0"/>
</g>
</svg>
