<svg width="20" height="20" viewBox="0 0 20 20" fill="none" xmlns="http://www.w3.org/2000/svg">
<g opacity="0.6" clip-path="url(#clip0_301_2267)">
<path d="M19.5468 3.70224C19.2326 3.8416 18.9096 3.95921 18.5795 4.05469C18.9703 3.61276 19.2682 3.09276 19.4501 2.52373C19.4908 2.39618 19.4486 2.25656 19.3437 2.17315C19.239 2.08966 19.0936 2.07966 18.9783 2.14798C18.2773 2.56373 17.521 2.8625 16.7281 3.03721C15.9293 2.25669 14.8444 1.8125 13.7228 1.8125C11.3554 1.8125 9.42936 3.7385 9.42936 6.10585C9.42936 6.29231 9.44117 6.47773 9.46453 6.66056C6.52678 6.40263 3.79562 4.95869 1.92014 2.65811C1.8533 2.57611 1.75034 2.53192 1.64492 2.54037C1.53943 2.54863 1.44466 2.60811 1.39137 2.69953C1.01098 3.35224 0.809884 4.09876 0.809884 4.85831C0.809884 5.89282 1.17924 6.87437 1.83169 7.64134C1.6333 7.57263 1.44079 7.48676 1.25705 7.38476C1.1584 7.32985 1.03801 7.33069 0.940013 7.38689C0.841949 7.44308 0.780465 7.54643 0.777884 7.6594C0.777433 7.67843 0.777433 7.69747 0.777433 7.71676C0.777433 9.26095 1.60853 10.6512 2.87917 11.4089C2.77001 11.398 2.66092 11.3822 2.55253 11.3615C2.44079 11.3402 2.32588 11.3793 2.25053 11.4646C2.17505 11.5497 2.15008 11.6684 2.18485 11.7768C2.65517 13.2452 3.86608 14.3253 5.32995 14.6546C4.11582 15.415 2.72737 15.8133 1.26982 15.8133C0.965691 15.8133 0.65982 15.7955 0.360465 15.76C0.211756 15.7424 0.069562 15.8302 0.0189169 15.9716C-0.0317282 16.1131 0.0219492 16.2708 0.148465 16.3519C2.02092 17.5525 4.18601 18.1871 6.40956 18.1871C10.7808 18.1871 13.5153 16.1258 15.0395 14.3966C16.9401 12.2404 18.0302 9.38637 18.0302 6.56643C18.0302 6.44863 18.0284 6.32966 18.0248 6.21108C18.7746 5.64611 19.4203 4.96237 19.9456 4.1765C20.0254 4.05714 20.0168 3.8994 19.9243 3.78953C19.832 3.6796 19.6781 3.64405 19.5468 3.70224Z" fill="#F0F0F0"/>
</g>
<defs>
<clipPath id="clip0_301_2267">
<rect width="20" height="20" fill="white"/>
</clipPath>
</defs>
</svg>
