<svg width="62" height="22" viewBox="0 0 62 22" fill="none" xmlns="http://www.w3.org/2000/svg">
<path d="M12.1406 15.791C12.1406 15.4355 12.0859 15.1165 11.9766 14.834C11.8763 14.5423 11.6849 14.278 11.4023 14.041C11.1198 13.7949 10.7233 13.5534 10.2129 13.3164C9.70247 13.0794 9.04167 12.8333 8.23047 12.5781C7.32812 12.2865 6.47135 11.9583 5.66016 11.5938C4.85807 11.2292 4.14714 10.8053 3.52734 10.3223C2.91667 9.83008 2.43359 9.26042 2.07812 8.61328C1.73177 7.96615 1.55859 7.21419 1.55859 6.35742C1.55859 5.52799 1.74089 4.77604 2.10547 4.10156C2.47005 3.41797 2.98047 2.83464 3.63672 2.35156C4.29297 1.85938 5.06771 1.48112 5.96094 1.2168C6.86328 0.952474 7.85221 0.820312 8.92773 0.820312C10.3952 0.820312 11.6758 1.08464 12.7695 1.61328C13.8633 2.14193 14.7109 2.86654 15.3125 3.78711C15.9232 4.70768 16.2285 5.76042 16.2285 6.94531H12.1543C12.1543 6.36198 12.0312 5.85156 11.7852 5.41406C11.5482 4.96745 11.1836 4.61654 10.6914 4.36133C10.2083 4.10612 9.59766 3.97852 8.85938 3.97852C8.14844 3.97852 7.55599 4.08789 7.08203 4.30664C6.60807 4.51628 6.2526 4.80339 6.01562 5.16797C5.77865 5.52344 5.66016 5.92448 5.66016 6.37109C5.66016 6.70833 5.74219 7.01367 5.90625 7.28711C6.07943 7.56055 6.33464 7.81576 6.67188 8.05273C7.00911 8.28971 7.42383 8.51302 7.91602 8.72266C8.4082 8.93229 8.97786 9.13737 9.625 9.33789C10.7096 9.66602 11.6621 10.0352 12.4824 10.4453C13.3118 10.8555 14.0046 11.3158 14.5605 11.8262C15.1165 12.3366 15.5358 12.9154 15.8184 13.5625C16.1009 14.2096 16.2422 14.9434 16.2422 15.7637C16.2422 16.6296 16.0736 17.4043 15.7363 18.0879C15.3991 18.7715 14.9115 19.3503 14.2734 19.8242C13.6354 20.2982 12.8743 20.6582 11.9902 20.9043C11.1061 21.1504 10.1172 21.2734 9.02344 21.2734C8.03906 21.2734 7.06836 21.1458 6.11133 20.8906C5.1543 20.6263 4.28385 20.2298 3.5 19.7012C2.72526 19.1725 2.10547 18.498 1.64062 17.6777C1.17578 16.8574 0.943359 15.8867 0.943359 14.7656H5.05859C5.05859 15.3854 5.1543 15.9095 5.3457 16.3379C5.53711 16.7663 5.80599 17.1126 6.15234 17.377C6.50781 17.6413 6.92708 17.8327 7.41016 17.9512C7.90234 18.0697 8.4401 18.1289 9.02344 18.1289C9.73438 18.1289 10.3177 18.0286 10.7734 17.8281C11.2383 17.6276 11.5801 17.3496 11.7988 16.9941C12.0267 16.6387 12.1406 16.2376 12.1406 15.791ZM27.125 4.49805L21.7109 21H17.3496L24.7461 1.09375H27.5215L27.125 4.49805ZM31.623 21L26.1953 4.49805L25.7578 1.09375H28.5605L35.998 21H31.623ZM31.377 13.5898V16.8027H20.8633V13.5898H31.377ZM53.375 10.5957V18.4844C53.0651 18.8581 52.5866 19.2637 51.9395 19.7012C51.2923 20.1296 50.4583 20.4987 49.4375 20.8086C48.4167 21.1185 47.1816 21.2734 45.7324 21.2734C44.4473 21.2734 43.276 21.0638 42.2188 20.6445C41.1615 20.2161 40.25 19.5918 39.4844 18.7715C38.7279 17.9512 38.1445 16.9486 37.7344 15.7637C37.3242 14.5697 37.1191 13.207 37.1191 11.6758V10.4316C37.1191 8.90039 37.3151 7.53776 37.707 6.34375C38.1081 5.14974 38.6777 4.14258 39.416 3.32227C40.1543 2.50195 41.0339 1.8776 42.0547 1.44922C43.0755 1.02083 44.2103 0.806641 45.459 0.806641C47.1908 0.806641 48.6126 1.08919 49.7246 1.6543C50.8366 2.21029 51.6842 2.98503 52.2676 3.97852C52.86 4.96289 53.2246 6.0931 53.3613 7.36914H49.3828C49.2826 6.69466 49.0911 6.10677 48.8086 5.60547C48.526 5.10417 48.1204 4.71224 47.5918 4.42969C47.0723 4.14714 46.3978 4.00586 45.5684 4.00586C44.8848 4.00586 44.2741 4.14714 43.7363 4.42969C43.2077 4.70312 42.7611 5.10872 42.3965 5.64648C42.0319 6.18424 41.7539 6.84961 41.5625 7.64258C41.3711 8.43555 41.2754 9.35612 41.2754 10.4043V11.6758C41.2754 12.7148 41.3757 13.6354 41.5762 14.4375C41.7767 15.2305 42.0729 15.9004 42.4648 16.4473C42.8659 16.985 43.3581 17.3906 43.9414 17.6641C44.5247 17.9375 45.2038 18.0742 45.9785 18.0742C46.6257 18.0742 47.1634 18.0195 47.5918 17.9102C48.0293 17.8008 48.3802 17.6686 48.6445 17.5137C48.918 17.3496 49.1276 17.1947 49.2734 17.0488V13.5215H45.5273V10.5957H53.375ZM61.0449 1.09375V21H56.957V1.09375H61.0449Z" fill="white"/>
</svg>
